<?xml version="1.0" standalone="no"?>
<!DOCTYPE svg PUBLIC "-//W3C//DTD SVG 20010904//EN"
 "http://www.w3.org/TR/2001/REC-SVG-20010904/DTD/svg10.dtd">
<svg version="1.0" xmlns="http://www.w3.org/2000/svg"
 width="1136.000000pt" height="928.000000pt" viewBox="0 0 1136.000000 928.000000"
 preserveAspectRatio="xMidYMid meet">
<metadata>
Created by potrace 1.16, written by Peter Selinger 2001-2019
</metadata>
<g transform="translate(0.000000,928.000000) scale(0.100000,-0.100000)"
fill="#000000" stroke="none">
<path d="M5466 9050 c-438 -69 -781 -376 -893 -798 -22 -83 -26 -120 -27 -252
-1 -180 3 -215 39 -330 55 -174 142 -318 269 -446 159 -160 360 -264 583 -304
88 -15 284 -13 375 4 291 56 551 230 705 474 24 37 47 72 52 78 5 7 7 15 4 18
-4 3 -2 6 4 6 6 0 13 10 16 23 3 12 19 60 36 106 70 189 80 415 27 636 -49
203 -227 459 -411 591 -126 90 -304 166 -445 190 -59 9 -280 12 -334 4z m384
-285 c222 -70 397 -219 495 -420 59 -121 76 -188 82 -326 11 -236 -61 -431
-221 -597 -164 -172 -356 -254 -591 -254 -239 0 -430 83 -597 260 -83 88 -138
180 -180 302 -31 90 -32 102 -33 245 0 176 12 234 79 370 113 229 316 384 576
440 103 23 285 13 390 -20z"/>
<path d="M4363 6878 c-12 -13 -580 -885 -1264 -1938 -683 -1053 -1487 -2293
-1787 -2755 -300 -462 -549 -841 -553 -843 -5 -2 -9 -8 -9 -14 0 -12 -181
-292 -192 -296 -4 -2 -8 -8 -8 -13 0 -7 -179 -289 -259 -408 -19 -28 -66 -101
-123 -191 -20 -30 -61 -94 -92 -142 -31 -48 -56 -96 -56 -107 0 -10 9 -29 19
-42 l19 -24 5557 0 5557 0 19 24 c10 13 19 31 19 40 0 16 -53 105 -154 261
-24 36 -69 106 -101 155 -32 50 -77 119 -100 155 -23 36 -68 106 -100 155 -32
50 -77 119 -100 155 -24 36 -77 117 -118 180 -41 63 -113 175 -161 248 -47 73
-86 137 -86 142 0 4 -4 10 -8 12 -11 4 -412 624 -412 636 0 6 -4 12 -9 14 -4
2 -675 1031 -1491 2288 -815 1257 -1491 2295 -1503 2308 -25 26 -57 28 -86 5
-11 -10 -277 -413 -590 -896 -313 -483 -573 -878 -576 -878 -3 0 -263 395
-576 878 -313 483 -579 886 -590 896 -29 23 -61 21 -86 -5z m106 -514 c17 -10
197 -279 509 -759 l483 -744 -1093 -1683 c-600 -926 -1257 -1937 -1458 -2248
l-367 -565 -1013 -3 c-895 -2 -1016 0 -1037 13 -13 9 -23 20 -23 26 0 6 339
533 754 1172 414 639 1281 1974 1925 2967 768 1185 1180 1811 1198 1822 35 22
87 23 122 2z m2435 -26 c19 -18 220 -321 448 -673 228 -352 1088 -1678 1911
-2947 823 -1269 1497 -2311 1497 -2317 0 -6 -10 -17 -23 -26 -21 -13 -142 -15
-1037 -13 l-1013 3 -1459 2248 -1459 2248 477 735 c262 404 488 744 502 754
17 14 40 20 73 20 42 0 54 -5 83 -32z m77 -3818 c1016 -1566 1353 -2092 1354
-2115 l0 -30 -2720 0 -2720 0 0 30 c1 23 339 551 1360 2123 747 1151 1362
2089 1366 2085 3 -4 616 -946 1360 -2093z"/>
</g>
</svg>
